<mxfile host="Electron" modified="2024-04-15T03:38:22.689Z" agent="Mozilla/5.0 (Windows NT 10.0; Win64; x64) AppleWebKit/537.36 (KHTML, like Gecko) draw.io/21.6.8 Chrome/114.0.5735.289 Electron/25.5.0 Safari/537.36" etag="JYpLeQ1X5eYdlcGvlaBk" version="21.6.8" type="device">
  <diagram id="C5RBs43oDa-KdzZeNtuy" name="Page-1">
    <mxGraphModel dx="1247" dy="1574" grid="1" gridSize="10" guides="1" tooltips="1" connect="1" arrows="1" fold="1" page="1" pageScale="1" pageWidth="1169" pageHeight="827" math="0" shadow="0">
      <root>
        <mxCell id="WIyWlLk6GJQsqaUBKTNV-0" />
        <mxCell id="WIyWlLk6GJQsqaUBKTNV-1" parent="WIyWlLk6GJQsqaUBKTNV-0" />
        <mxCell id="6ku5pOruQoeJ5bI3CPba-5" value="model" style="shape=folder;fontStyle=1;tabWidth=110;tabHeight=30;tabPosition=left;html=1;boundedLbl=1;labelInHeader=1;container=1;collapsible=0;recursiveResize=0;whiteSpace=wrap;fillColor=#e1d5e7;strokeColor=#9673a6;" vertex="1" parent="WIyWlLk6GJQsqaUBKTNV-1">
          <mxGeometry x="9" y="-686" width="1130" height="610" as="geometry" />
        </mxCell>
        <mxCell id="zkfFHV4jXpPFQw0GAbJ--13" value="Professor" style="swimlane;fontStyle=1;align=center;verticalAlign=top;childLayout=stackLayout;horizontal=1;startSize=26;horizontalStack=0;resizeParent=1;resizeLast=0;collapsible=1;marginBottom=0;rounded=0;shadow=0;strokeWidth=1;fillColor=default;" parent="6ku5pOruQoeJ5bI3CPba-5" vertex="1">
          <mxGeometry x="10" y="50" width="310" height="430" as="geometry">
            <mxRectangle x="340" y="380" width="170" height="26" as="alternateBounds" />
          </mxGeometry>
        </mxCell>
        <mxCell id="zkfFHV4jXpPFQw0GAbJ--14" value="- id : int" style="text;align=left;verticalAlign=top;spacingLeft=4;spacingRight=4;overflow=hidden;rotatable=0;points=[[0,0.5],[1,0.5]];portConstraint=eastwest;fillColor=default;" parent="zkfFHV4jXpPFQw0GAbJ--13" vertex="1">
          <mxGeometry y="26" width="310" height="26" as="geometry" />
        </mxCell>
        <mxCell id="6ku5pOruQoeJ5bI3CPba-0" value="-name: String" style="text;align=left;verticalAlign=top;spacingLeft=4;spacingRight=4;overflow=hidden;rotatable=0;points=[[0,0.5],[1,0.5]];portConstraint=eastwest;fillColor=default;" vertex="1" parent="zkfFHV4jXpPFQw0GAbJ--13">
          <mxGeometry y="52" width="310" height="26" as="geometry" />
        </mxCell>
        <mxCell id="6ku5pOruQoeJ5bI3CPba-1" value="-seniorityLevel: double" style="text;align=left;verticalAlign=top;spacingLeft=4;spacingRight=4;overflow=hidden;rotatable=0;points=[[0,0.5],[1,0.5]];portConstraint=eastwest;fillColor=default;" vertex="1" parent="zkfFHV4jXpPFQw0GAbJ--13">
          <mxGeometry y="78" width="310" height="26" as="geometry" />
        </mxCell>
        <mxCell id="6ku5pOruQoeJ5bI3CPba-2" value="-hiringDate: Date" style="text;align=left;verticalAlign=top;spacingLeft=4;spacingRight=4;overflow=hidden;rotatable=0;points=[[0,0.5],[1,0.5]];portConstraint=eastwest;fillColor=default;" vertex="1" parent="zkfFHV4jXpPFQw0GAbJ--13">
          <mxGeometry y="104" width="310" height="26" as="geometry" />
        </mxCell>
        <mxCell id="6ku5pOruQoeJ5bI3CPba-3" value="        -setOfDisciplines: Set&lt;String&gt;&#xa;&#xa;" style="text;align=left;verticalAlign=top;spacingLeft=4;spacingRight=4;overflow=hidden;rotatable=0;points=[[0,0.5],[1,0.5]];portConstraint=eastwest;fillColor=default;" vertex="1" parent="zkfFHV4jXpPFQw0GAbJ--13">
          <mxGeometry y="130" width="310" height="26" as="geometry" />
        </mxCell>
        <mxCell id="6ku5pOruQoeJ5bI3CPba-7" value="        -listOfAffectedCourses: ArrayList&lt;Course&gt;&#xa;&#xa;" style="text;align=left;verticalAlign=top;spacingLeft=4;spacingRight=4;overflow=hidden;rotatable=0;points=[[0,0.5],[1,0.5]];portConstraint=eastwest;fillColor=default;" vertex="1" parent="zkfFHV4jXpPFQw0GAbJ--13">
          <mxGeometry y="156" width="310" height="26" as="geometry" />
        </mxCell>
        <mxCell id="zkfFHV4jXpPFQw0GAbJ--15" value="" style="line;html=1;strokeWidth=1;align=left;verticalAlign=middle;spacingTop=-1;spacingLeft=3;spacingRight=3;rotatable=0;labelPosition=right;points=[];portConstraint=eastwest;fillColor=default;" parent="zkfFHV4jXpPFQw0GAbJ--13" vertex="1">
          <mxGeometry y="182" width="310" height="8" as="geometry" />
        </mxCell>
        <mxCell id="6ku5pOruQoeJ5bI3CPba-24" value="        +Professor(int, String, double, Date, Set&lt;String&gt;)&#xa;&#xa;" style="text;align=left;verticalAlign=top;spacingLeft=4;spacingRight=4;overflow=hidden;rotatable=0;points=[[0,0.5],[1,0.5]];portConstraint=eastwest;fillColor=default;" vertex="1" parent="zkfFHV4jXpPFQw0GAbJ--13">
          <mxGeometry y="190" width="310" height="26" as="geometry" />
        </mxCell>
        <mxCell id="6ku5pOruQoeJ5bI3CPba-8" value="        +compareTo(professor: Professor): int&#xa;&#xa;" style="text;align=left;verticalAlign=top;spacingLeft=4;spacingRight=4;overflow=hidden;rotatable=0;points=[[0,0.5],[1,0.5]];portConstraint=eastwest;fillColor=default;" vertex="1" parent="zkfFHV4jXpPFQw0GAbJ--13">
          <mxGeometry y="216" width="310" height="26" as="geometry" />
        </mxCell>
        <mxCell id="6ku5pOruQoeJ5bI3CPba-25" value="        +getTotalWeeklyHours(): int&#xa;&#xa;" style="text;align=left;verticalAlign=top;spacingLeft=4;spacingRight=4;overflow=hidden;rotatable=0;points=[[0,0.5],[1,0.5]];portConstraint=eastwest;fillColor=default;" vertex="1" parent="zkfFHV4jXpPFQw0GAbJ--13">
          <mxGeometry y="242" width="310" height="26" as="geometry" />
        </mxCell>
        <mxCell id="6ku5pOruQoeJ5bI3CPba-26" value="        +getId(): int&#xa;&#xa;" style="text;align=left;verticalAlign=top;spacingLeft=4;spacingRight=4;overflow=hidden;rotatable=0;points=[[0,0.5],[1,0.5]];portConstraint=eastwest;fillColor=default;" vertex="1" parent="zkfFHV4jXpPFQw0GAbJ--13">
          <mxGeometry y="268" width="310" height="26" as="geometry" />
        </mxCell>
        <mxCell id="6ku5pOruQoeJ5bI3CPba-27" value="        +getName(): String&#xa;&#xa;" style="text;align=left;verticalAlign=top;spacingLeft=4;spacingRight=4;overflow=hidden;rotatable=0;points=[[0,0.5],[1,0.5]];portConstraint=eastwest;fillColor=default;" vertex="1" parent="zkfFHV4jXpPFQw0GAbJ--13">
          <mxGeometry y="294" width="310" height="26" as="geometry" />
        </mxCell>
        <mxCell id="6ku5pOruQoeJ5bI3CPba-28" value="        +getSetOfDisciplines(): Set&lt;String&gt;&#xa;&#xa;" style="text;align=left;verticalAlign=top;spacingLeft=4;spacingRight=4;overflow=hidden;rotatable=0;points=[[0,0.5],[1,0.5]];portConstraint=eastwest;fillColor=default;" vertex="1" parent="zkfFHV4jXpPFQw0GAbJ--13">
          <mxGeometry y="320" width="310" height="26" as="geometry" />
        </mxCell>
        <mxCell id="6ku5pOruQoeJ5bI3CPba-29" value="        +getListOfAffectedCourses(): ArrayList&lt;Course&gt;&#xa;&#xa;" style="text;align=left;verticalAlign=top;spacingLeft=4;spacingRight=4;overflow=hidden;rotatable=0;points=[[0,0.5],[1,0.5]];portConstraint=eastwest;fillColor=default;" vertex="1" parent="zkfFHV4jXpPFQw0GAbJ--13">
          <mxGeometry y="346" width="310" height="26" as="geometry" />
        </mxCell>
        <mxCell id="6ku5pOruQoeJ5bI3CPba-30" value="        +setListOfAffectedCourses(ArrayList&lt;Course&gt;): void&#xa;&#xa;" style="text;align=left;verticalAlign=top;spacingLeft=4;spacingRight=4;overflow=hidden;rotatable=0;points=[[0,0.5],[1,0.5]];portConstraint=eastwest;fillColor=default;" vertex="1" parent="zkfFHV4jXpPFQw0GAbJ--13">
          <mxGeometry y="372" width="310" height="26" as="geometry" />
        </mxCell>
        <mxCell id="6ku5pOruQoeJ5bI3CPba-31" value="        +toString(): String" style="text;align=left;verticalAlign=top;spacingLeft=4;spacingRight=4;overflow=hidden;rotatable=0;points=[[0,0.5],[1,0.5]];portConstraint=eastwest;fillColor=default;" vertex="1" parent="zkfFHV4jXpPFQw0GAbJ--13">
          <mxGeometry y="398" width="310" height="26" as="geometry" />
        </mxCell>
        <mxCell id="zkfFHV4jXpPFQw0GAbJ--17" value="Course" style="swimlane;fontStyle=1;align=center;verticalAlign=top;childLayout=stackLayout;horizontal=1;startSize=26;horizontalStack=0;resizeParent=1;resizeLast=0;collapsible=1;marginBottom=0;rounded=0;shadow=0;strokeWidth=1;" parent="6ku5pOruQoeJ5bI3CPba-5" vertex="1">
          <mxGeometry x="424" y="50" width="300" height="424" as="geometry">
            <mxRectangle x="550" y="140" width="160" height="26" as="alternateBounds" />
          </mxGeometry>
        </mxCell>
        <mxCell id="zkfFHV4jXpPFQw0GAbJ--18" value="        -id: String" style="text;align=left;verticalAlign=top;spacingLeft=4;spacingRight=4;overflow=hidden;rotatable=0;points=[[0,0.5],[1,0.5]];portConstraint=eastwest;fillColor=default;" parent="zkfFHV4jXpPFQw0GAbJ--17" vertex="1">
          <mxGeometry y="26" width="300" height="26" as="geometry" />
        </mxCell>
        <mxCell id="zkfFHV4jXpPFQw0GAbJ--20" value="        -title: String" style="text;align=left;verticalAlign=top;spacingLeft=4;spacingRight=4;overflow=hidden;rotatable=0;points=[[0,0.5],[1,0.5]];portConstraint=eastwest;rounded=0;shadow=0;html=0;fillColor=default;" parent="zkfFHV4jXpPFQw0GAbJ--17" vertex="1">
          <mxGeometry y="52" width="300" height="26" as="geometry" />
        </mxCell>
        <mxCell id="zkfFHV4jXpPFQw0GAbJ--21" value="        -discipline: String" style="text;align=left;verticalAlign=top;spacingLeft=4;spacingRight=4;overflow=hidden;rotatable=0;points=[[0,0.5],[1,0.5]];portConstraint=eastwest;rounded=0;shadow=0;html=0;fillColor=default;" parent="zkfFHV4jXpPFQw0GAbJ--17" vertex="1">
          <mxGeometry y="78" width="300" height="26" as="geometry" />
        </mxCell>
        <mxCell id="zkfFHV4jXpPFQw0GAbJ--22" value="        -numberOfHours: int" style="text;align=left;verticalAlign=top;spacingLeft=4;spacingRight=4;overflow=hidden;rotatable=0;points=[[0,0.5],[1,0.5]];portConstraint=eastwest;rounded=0;shadow=0;html=0;fillColor=default;" parent="zkfFHV4jXpPFQw0GAbJ--17" vertex="1">
          <mxGeometry y="104" width="300" height="26" as="geometry" />
        </mxCell>
        <mxCell id="6ku5pOruQoeJ5bI3CPba-33" value="        -numOfGroups: int&#xa;&#xa;" style="text;align=left;verticalAlign=top;spacingLeft=4;spacingRight=4;overflow=hidden;rotatable=0;points=[[0,0.5],[1,0.5]];portConstraint=eastwest;rounded=0;shadow=0;html=0;fillColor=default;" vertex="1" parent="zkfFHV4jXpPFQw0GAbJ--17">
          <mxGeometry y="130" width="300" height="26" as="geometry" />
        </mxCell>
        <mxCell id="zkfFHV4jXpPFQw0GAbJ--23" value="" style="line;html=1;strokeWidth=1;align=left;verticalAlign=middle;spacingTop=-1;spacingLeft=3;spacingRight=3;rotatable=0;labelPosition=right;points=[];portConstraint=eastwest;fillStyle=auto;" parent="zkfFHV4jXpPFQw0GAbJ--17" vertex="1">
          <mxGeometry y="156" width="300" height="8" as="geometry" />
        </mxCell>
        <mxCell id="6ku5pOruQoeJ5bI3CPba-34" value="        +Course(String, String, String, int, int)" style="text;align=left;verticalAlign=top;spacingLeft=4;spacingRight=4;overflow=hidden;rotatable=0;points=[[0,0.5],[1,0.5]];portConstraint=eastwest;rounded=0;shadow=0;html=0;fillColor=default;" vertex="1" parent="zkfFHV4jXpPFQw0GAbJ--17">
          <mxGeometry y="164" width="300" height="26" as="geometry" />
        </mxCell>
        <mxCell id="6ku5pOruQoeJ5bI3CPba-35" value="        +Course(course: Course)" style="text;align=left;verticalAlign=top;spacingLeft=4;spacingRight=4;overflow=hidden;rotatable=0;points=[[0,0.5],[1,0.5]];portConstraint=eastwest;rounded=0;shadow=0;html=0;fillColor=default;" vertex="1" parent="zkfFHV4jXpPFQw0GAbJ--17">
          <mxGeometry y="190" width="300" height="26" as="geometry" />
        </mxCell>
        <mxCell id="6ku5pOruQoeJ5bI3CPba-36" value="+getId(): String" style="text;align=left;verticalAlign=top;spacingLeft=4;spacingRight=4;overflow=hidden;rotatable=0;points=[[0,0.5],[1,0.5]];portConstraint=eastwest;rounded=0;shadow=0;html=0;fillColor=default;" vertex="1" parent="zkfFHV4jXpPFQw0GAbJ--17">
          <mxGeometry y="216" width="300" height="26" as="geometry" />
        </mxCell>
        <mxCell id="6ku5pOruQoeJ5bI3CPba-37" value="+getTitle(): String" style="text;align=left;verticalAlign=top;spacingLeft=4;spacingRight=4;overflow=hidden;rotatable=0;points=[[0,0.5],[1,0.5]];portConstraint=eastwest;rounded=0;shadow=0;html=0;fillColor=default;" vertex="1" parent="zkfFHV4jXpPFQw0GAbJ--17">
          <mxGeometry y="242" width="300" height="26" as="geometry" />
        </mxCell>
        <mxCell id="6ku5pOruQoeJ5bI3CPba-38" value="+getDiscipline(): String" style="text;align=left;verticalAlign=top;spacingLeft=4;spacingRight=4;overflow=hidden;rotatable=0;points=[[0,0.5],[1,0.5]];portConstraint=eastwest;rounded=0;shadow=0;html=0;fillColor=default;" vertex="1" parent="zkfFHV4jXpPFQw0GAbJ--17">
          <mxGeometry y="268" width="300" height="26" as="geometry" />
        </mxCell>
        <mxCell id="6ku5pOruQoeJ5bI3CPba-39" value="+getNumberOfHours(): int" style="text;align=left;verticalAlign=top;spacingLeft=4;spacingRight=4;overflow=hidden;rotatable=0;points=[[0,0.5],[1,0.5]];portConstraint=eastwest;rounded=0;shadow=0;html=0;fillColor=default;" vertex="1" parent="zkfFHV4jXpPFQw0GAbJ--17">
          <mxGeometry y="294" width="300" height="26" as="geometry" />
        </mxCell>
        <mxCell id="6ku5pOruQoeJ5bI3CPba-40" value="+getNumOfGroups(): int" style="text;align=left;verticalAlign=top;spacingLeft=4;spacingRight=4;overflow=hidden;rotatable=0;points=[[0,0.5],[1,0.5]];portConstraint=eastwest;rounded=0;shadow=0;html=0;fillColor=default;" vertex="1" parent="zkfFHV4jXpPFQw0GAbJ--17">
          <mxGeometry y="320" width="300" height="26" as="geometry" />
        </mxCell>
        <mxCell id="6ku5pOruQoeJ5bI3CPba-41" value="+setNumOfGroups(numOfGroups: int): void" style="text;align=left;verticalAlign=top;spacingLeft=4;spacingRight=4;overflow=hidden;rotatable=0;points=[[0,0.5],[1,0.5]];portConstraint=eastwest;rounded=0;shadow=0;html=0;fillColor=default;" vertex="1" parent="zkfFHV4jXpPFQw0GAbJ--17">
          <mxGeometry y="346" width="300" height="26" as="geometry" />
        </mxCell>
        <mxCell id="6ku5pOruQoeJ5bI3CPba-42" value="+decreaseNumOfGroups(numOfGroups: int): void" style="text;align=left;verticalAlign=top;spacingLeft=4;spacingRight=4;overflow=hidden;rotatable=0;points=[[0,0.5],[1,0.5]];portConstraint=eastwest;rounded=0;shadow=0;html=0;fillColor=default;" vertex="1" parent="zkfFHV4jXpPFQw0GAbJ--17">
          <mxGeometry y="372" width="300" height="26" as="geometry" />
        </mxCell>
        <mxCell id="6ku5pOruQoeJ5bI3CPba-43" value="+getWeeklyHours(): int" style="text;align=left;verticalAlign=top;spacingLeft=4;spacingRight=4;overflow=hidden;rotatable=0;points=[[0,0.5],[1,0.5]];portConstraint=eastwest;rounded=0;shadow=0;html=0;fillColor=default;" vertex="1" parent="zkfFHV4jXpPFQw0GAbJ--17">
          <mxGeometry y="398" width="300" height="26" as="geometry" />
        </mxCell>
        <mxCell id="6ku5pOruQoeJ5bI3CPba-9" value="«interface»&lt;br&gt;&lt;b&gt;Comparable &amp;lt;Professor&amp;gt;&lt;/b&gt;" style="html=1;whiteSpace=wrap;" vertex="1" parent="6ku5pOruQoeJ5bI3CPba-5">
          <mxGeometry x="85" y="540" width="160" height="50" as="geometry" />
        </mxCell>
        <mxCell id="6ku5pOruQoeJ5bI3CPba-14" value="" style="endArrow=block;dashed=1;endFill=0;endSize=12;html=1;rounded=0;entryX=0.5;entryY=0;entryDx=0;entryDy=0;" edge="1" parent="6ku5pOruQoeJ5bI3CPba-5" source="zkfFHV4jXpPFQw0GAbJ--13" target="6ku5pOruQoeJ5bI3CPba-9">
          <mxGeometry width="160" relative="1" as="geometry">
            <mxPoint x="190" y="130" as="sourcePoint" />
            <mxPoint x="350" y="130" as="targetPoint" />
          </mxGeometry>
        </mxCell>
        <mxCell id="zkfFHV4jXpPFQw0GAbJ--6" value="Department" style="swimlane;fontStyle=1;align=center;verticalAlign=top;childLayout=stackLayout;horizontal=1;startSize=26;horizontalStack=0;resizeParent=1;resizeLast=0;collapsible=1;marginBottom=0;rounded=0;shadow=0;strokeWidth=1;" parent="6ku5pOruQoeJ5bI3CPba-5" vertex="1">
          <mxGeometry x="811" y="126" width="290" height="242" as="geometry">
            <mxRectangle x="130" y="380" width="160" height="26" as="alternateBounds" />
          </mxGeometry>
        </mxCell>
        <mxCell id="zkfFHV4jXpPFQw0GAbJ--7" value="-courseMap : HashMap&lt;String, Course&gt;" style="text;align=left;verticalAlign=top;spacingLeft=4;spacingRight=4;overflow=hidden;rotatable=0;points=[[0,0.5],[1,0.5]];portConstraint=eastwest;fillColor=default;" parent="zkfFHV4jXpPFQw0GAbJ--6" vertex="1">
          <mxGeometry y="26" width="290" height="26" as="geometry" />
        </mxCell>
        <mxCell id="zkfFHV4jXpPFQw0GAbJ--8" value="-listOfProfs : ArrayList&lt;Professor&gt;" style="text;align=left;verticalAlign=top;spacingLeft=4;spacingRight=4;overflow=hidden;rotatable=0;points=[[0,0.5],[1,0.5]];portConstraint=eastwest;rounded=0;shadow=0;html=0;fillColor=default;" parent="zkfFHV4jXpPFQw0GAbJ--6" vertex="1">
          <mxGeometry y="52" width="290" height="26" as="geometry" />
        </mxCell>
        <mxCell id="zkfFHV4jXpPFQw0GAbJ--9" value="" style="line;html=1;strokeWidth=1;align=left;verticalAlign=middle;spacingTop=-1;spacingLeft=3;spacingRight=3;rotatable=0;labelPosition=right;points=[];portConstraint=eastwest;" parent="zkfFHV4jXpPFQw0GAbJ--6" vertex="1">
          <mxGeometry y="78" width="290" height="8" as="geometry" />
        </mxCell>
        <mxCell id="zkfFHV4jXpPFQw0GAbJ--10" value="+Department(ArrayList&lt;Professor&gt;)" style="text;align=left;verticalAlign=top;spacingLeft=4;spacingRight=4;overflow=hidden;rotatable=0;points=[[0,0.5],[1,0.5]];portConstraint=eastwest;fontStyle=0;fillColor=default;" parent="zkfFHV4jXpPFQw0GAbJ--6" vertex="1">
          <mxGeometry y="86" width="290" height="26" as="geometry" />
        </mxCell>
        <mxCell id="zkfFHV4jXpPFQw0GAbJ--11" value="+getCourseMap(): HashMap&lt;String, Course&gt;" style="text;align=left;verticalAlign=top;spacingLeft=4;spacingRight=4;overflow=hidden;rotatable=0;points=[[0,0.5],[1,0.5]];portConstraint=eastwest;fillColor=default;" parent="zkfFHV4jXpPFQw0GAbJ--6" vertex="1">
          <mxGeometry y="112" width="290" height="26" as="geometry" />
        </mxCell>
        <mxCell id="6ku5pOruQoeJ5bI3CPba-44" value="+setCourseMap(HashMap&lt;String, Course&gt;): void" style="text;align=left;verticalAlign=top;spacingLeft=4;spacingRight=4;overflow=hidden;rotatable=0;points=[[0,0.5],[1,0.5]];portConstraint=eastwest;fillColor=default;" vertex="1" parent="zkfFHV4jXpPFQw0GAbJ--6">
          <mxGeometry y="138" width="290" height="26" as="geometry" />
        </mxCell>
        <mxCell id="6ku5pOruQoeJ5bI3CPba-45" value="+getListOfProfs(): ArrayList&lt;Professor&gt;" style="text;align=left;verticalAlign=top;spacingLeft=4;spacingRight=4;overflow=hidden;rotatable=0;points=[[0,0.5],[1,0.5]];portConstraint=eastwest;fillColor=default;" vertex="1" parent="zkfFHV4jXpPFQw0GAbJ--6">
          <mxGeometry y="164" width="290" height="26" as="geometry" />
        </mxCell>
        <mxCell id="6ku5pOruQoeJ5bI3CPba-46" value="-readCoursesFromFile(String): List&lt;Course&gt;" style="text;align=left;verticalAlign=top;spacingLeft=4;spacingRight=4;overflow=hidden;rotatable=0;points=[[0,0.5],[1,0.5]];portConstraint=eastwest;fillColor=default;" vertex="1" parent="zkfFHV4jXpPFQw0GAbJ--6">
          <mxGeometry y="190" width="290" height="26" as="geometry" />
        </mxCell>
        <mxCell id="6ku5pOruQoeJ5bI3CPba-50" value="-parseCourse(): Course" style="text;align=left;verticalAlign=top;spacingLeft=4;spacingRight=4;overflow=hidden;rotatable=0;points=[[0,0.5],[1,0.5]];portConstraint=eastwest;fillColor=default;" vertex="1" parent="zkfFHV4jXpPFQw0GAbJ--6">
          <mxGeometry y="216" width="290" height="26" as="geometry" />
        </mxCell>
        <mxCell id="6ku5pOruQoeJ5bI3CPba-48" value="" style="endArrow=diamondThin;endFill=0;endSize=24;html=1;rounded=0;exitX=1;exitY=0.5;exitDx=0;exitDy=0;" edge="1" parent="6ku5pOruQoeJ5bI3CPba-5" source="6ku5pOruQoeJ5bI3CPba-7" target="6ku5pOruQoeJ5bI3CPba-34">
          <mxGeometry width="160" relative="1" as="geometry">
            <mxPoint x="330" y="600" as="sourcePoint" />
            <mxPoint x="490" y="600" as="targetPoint" />
          </mxGeometry>
        </mxCell>
        <mxCell id="6ku5pOruQoeJ5bI3CPba-49" value="" style="endArrow=diamondThin;endFill=1;endSize=24;html=1;rounded=0;entryX=0;entryY=0.5;entryDx=0;entryDy=0;exitX=1;exitY=0.5;exitDx=0;exitDy=0;" edge="1" parent="6ku5pOruQoeJ5bI3CPba-5" source="6ku5pOruQoeJ5bI3CPba-34" target="zkfFHV4jXpPFQw0GAbJ--10">
          <mxGeometry width="160" relative="1" as="geometry">
            <mxPoint x="780" y="370" as="sourcePoint" />
            <mxPoint x="940" y="370" as="targetPoint" />
          </mxGeometry>
        </mxCell>
        <mxCell id="6ku5pOruQoeJ5bI3CPba-53" value="datastructures" style="shape=folder;fontStyle=1;tabWidth=110;tabHeight=30;tabPosition=left;html=1;boundedLbl=1;labelInHeader=1;container=1;collapsible=0;whiteSpace=wrap;fillColor=#dae8fc;strokeColor=#6c8ebf;" vertex="1" parent="WIyWlLk6GJQsqaUBKTNV-1">
          <mxGeometry x="50" y="20" width="500" height="710" as="geometry" />
        </mxCell>
        <mxCell id="6ku5pOruQoeJ5bI3CPba-54" value="" style="html=1;strokeColor=none;resizeWidth=1;resizeHeight=1;fillColor=none;part=1;connectable=0;allowArrows=0;deletable=0;whiteSpace=wrap;" vertex="1" parent="6ku5pOruQoeJ5bI3CPba-53">
          <mxGeometry width="500.00000000000006" height="684.18" relative="1" as="geometry">
            <mxPoint y="30" as="offset" />
          </mxGeometry>
        </mxCell>
        <mxCell id="6ku5pOruQoeJ5bI3CPba-90" value="«interface»&lt;br&gt;&lt;b&gt;Comparable &amp;lt;T&amp;gt;&lt;/b&gt;" style="html=1;whiteSpace=wrap;" vertex="1" parent="6ku5pOruQoeJ5bI3CPba-53">
          <mxGeometry x="310" y="453.76" width="160" height="50" as="geometry" />
        </mxCell>
        <mxCell id="6ku5pOruQoeJ5bI3CPba-55" value="MyPriorityQueue&lt;T&gt;" style="swimlane;fontStyle=1;align=center;verticalAlign=top;childLayout=stackLayout;horizontal=1;startSize=26;horizontalStack=0;resizeParent=1;resizeLast=0;collapsible=1;marginBottom=0;rounded=0;shadow=0;strokeWidth=1;" vertex="1" parent="6ku5pOruQoeJ5bI3CPba-53">
          <mxGeometry x="43.10000000000002" y="70.00363636363636" width="153.8" height="128.72727272727272" as="geometry">
            <mxRectangle x="130" y="380" width="160" height="26" as="alternateBounds" />
          </mxGeometry>
        </mxCell>
        <mxCell id="6ku5pOruQoeJ5bI3CPba-57" value="" style="text;align=left;verticalAlign=top;spacingLeft=4;spacingRight=4;overflow=hidden;rotatable=0;points=[[0,0.5],[1,0.5]];portConstraint=eastwest;rounded=0;shadow=0;html=0;fillColor=default;" vertex="1" parent="6ku5pOruQoeJ5bI3CPba-55">
          <mxGeometry y="26" width="153.8" height="25.745454545454546" as="geometry" />
        </mxCell>
        <mxCell id="6ku5pOruQoeJ5bI3CPba-58" value="" style="line;html=1;strokeWidth=1;align=left;verticalAlign=middle;spacingTop=-1;spacingLeft=3;spacingRight=3;rotatable=0;labelPosition=right;points=[];portConstraint=eastwest;" vertex="1" parent="6ku5pOruQoeJ5bI3CPba-55">
          <mxGeometry y="51.74545454545455" width="153.8" height="11.51219512195122" as="geometry" />
        </mxCell>
        <mxCell id="6ku5pOruQoeJ5bI3CPba-56" value="+MyPriorityQueue()" style="text;align=left;verticalAlign=top;spacingLeft=4;spacingRight=4;overflow=hidden;rotatable=0;points=[[0,0.5],[1,0.5]];portConstraint=eastwest;fillColor=default;" vertex="1" parent="6ku5pOruQoeJ5bI3CPba-55">
          <mxGeometry y="63.25764966740577" width="153.8" height="30.454727272727276" as="geometry" />
        </mxCell>
        <mxCell id="6ku5pOruQoeJ5bI3CPba-59" value="+enqueue(T): void" style="text;align=left;verticalAlign=top;spacingLeft=4;spacingRight=4;overflow=hidden;rotatable=0;points=[[0,0.5],[1,0.5]];portConstraint=eastwest;fontStyle=0;fillColor=default;" vertex="1" parent="6ku5pOruQoeJ5bI3CPba-55">
          <mxGeometry y="93.71237694013305" width="153.8" height="32.18181818181818" as="geometry" />
        </mxCell>
        <mxCell id="6ku5pOruQoeJ5bI3CPba-72" value="CircularQueue&lt;T&gt;" style="swimlane;fontStyle=1;align=center;verticalAlign=top;childLayout=stackLayout;horizontal=1;startSize=26;horizontalStack=0;resizeParent=1;resizeLast=0;collapsible=1;marginBottom=0;rounded=0;shadow=0;strokeWidth=1;" vertex="1" parent="6ku5pOruQoeJ5bI3CPba-53">
          <mxGeometry x="30" y="291.99727272727273" width="180" height="373.51964966740576" as="geometry">
            <mxRectangle x="130" y="380" width="160" height="26" as="alternateBounds" />
          </mxGeometry>
        </mxCell>
        <mxCell id="6ku5pOruQoeJ5bI3CPba-75" value="-theArrayCircularQueue: T[]" style="text;align=left;verticalAlign=top;spacingLeft=4;spacingRight=4;overflow=hidden;rotatable=0;points=[[0,0.5],[1,0.5]];portConstraint=eastwest;fillColor=default;" vertex="1" parent="6ku5pOruQoeJ5bI3CPba-72">
          <mxGeometry y="26" width="180" height="30.454727272727276" as="geometry" />
        </mxCell>
        <mxCell id="6ku5pOruQoeJ5bI3CPba-76" value="-front: int" style="text;align=left;verticalAlign=top;spacingLeft=4;spacingRight=4;overflow=hidden;rotatable=0;points=[[0,0.5],[1,0.5]];portConstraint=eastwest;fontStyle=0;fillColor=default;" vertex="1" parent="6ku5pOruQoeJ5bI3CPba-72">
          <mxGeometry y="56.454727272727276" width="180" height="32.18181818181818" as="geometry" />
        </mxCell>
        <mxCell id="6ku5pOruQoeJ5bI3CPba-77" value="-rear: int" style="text;align=left;verticalAlign=top;spacingLeft=4;spacingRight=4;overflow=hidden;rotatable=0;points=[[0,0.5],[1,0.5]];portConstraint=eastwest;fontStyle=0;fillColor=default;" vertex="1" parent="6ku5pOruQoeJ5bI3CPba-72">
          <mxGeometry y="88.63654545454546" width="180" height="32.18181818181818" as="geometry" />
        </mxCell>
        <mxCell id="6ku5pOruQoeJ5bI3CPba-78" value="-size: int" style="text;align=left;verticalAlign=top;spacingLeft=4;spacingRight=4;overflow=hidden;rotatable=0;points=[[0,0.5],[1,0.5]];portConstraint=eastwest;fontStyle=0;fillColor=default;" vertex="1" parent="6ku5pOruQoeJ5bI3CPba-72">
          <mxGeometry y="120.81836363636364" width="180" height="32.18181818181818" as="geometry" />
        </mxCell>
        <mxCell id="6ku5pOruQoeJ5bI3CPba-74" value="" style="line;html=1;strokeWidth=1;align=left;verticalAlign=middle;spacingTop=-1;spacingLeft=3;spacingRight=3;rotatable=0;labelPosition=right;points=[];portConstraint=eastwest;" vertex="1" parent="6ku5pOruQoeJ5bI3CPba-72">
          <mxGeometry y="153.00018181818183" width="180" height="11.51219512195122" as="geometry" />
        </mxCell>
        <mxCell id="6ku5pOruQoeJ5bI3CPba-79" value="+CircularQueue()" style="text;align=left;verticalAlign=top;spacingLeft=4;spacingRight=4;overflow=hidden;rotatable=0;points=[[0,0.5],[1,0.5]];portConstraint=eastwest;fontStyle=0;fillColor=default;" vertex="1" parent="6ku5pOruQoeJ5bI3CPba-72">
          <mxGeometry y="164.51237694013304" width="180" height="32.18181818181818" as="geometry" />
        </mxCell>
        <mxCell id="6ku5pOruQoeJ5bI3CPba-80" value="+CircularQueue(int)" style="text;align=left;verticalAlign=top;spacingLeft=4;spacingRight=4;overflow=hidden;rotatable=0;points=[[0,0.5],[1,0.5]];portConstraint=eastwest;fontStyle=0;fillColor=default;" vertex="1" parent="6ku5pOruQoeJ5bI3CPba-72">
          <mxGeometry y="196.69419512195122" width="180" height="32.18181818181818" as="geometry" />
        </mxCell>
        <mxCell id="6ku5pOruQoeJ5bI3CPba-81" value="+isEmpty(): boolean" style="text;align=left;verticalAlign=top;spacingLeft=4;spacingRight=4;overflow=hidden;rotatable=0;points=[[0,0.5],[1,0.5]];portConstraint=eastwest;fontStyle=0;fillColor=default;" vertex="1" parent="6ku5pOruQoeJ5bI3CPba-72">
          <mxGeometry y="228.8760133037694" width="180" height="32.18181818181818" as="geometry" />
        </mxCell>
        <mxCell id="6ku5pOruQoeJ5bI3CPba-82" value="+isFull(): boolean" style="text;align=left;verticalAlign=top;spacingLeft=4;spacingRight=4;overflow=hidden;rotatable=0;points=[[0,0.5],[1,0.5]];portConstraint=eastwest;fontStyle=0;fillColor=default;" vertex="1" parent="6ku5pOruQoeJ5bI3CPba-72">
          <mxGeometry y="261.0578314855876" width="180" height="32.18181818181818" as="geometry" />
        </mxCell>
        <mxCell id="6ku5pOruQoeJ5bI3CPba-86" value="+enqueue(T): void" style="text;align=left;verticalAlign=top;spacingLeft=4;spacingRight=4;overflow=hidden;rotatable=0;points=[[0,0.5],[1,0.5]];portConstraint=eastwest;fontStyle=0;fillColor=default;" vertex="1" parent="6ku5pOruQoeJ5bI3CPba-72">
          <mxGeometry y="293.2396496674058" width="180" height="26.76" as="geometry" />
        </mxCell>
        <mxCell id="6ku5pOruQoeJ5bI3CPba-87" value="+dequeue(): T" style="text;align=left;verticalAlign=top;spacingLeft=4;spacingRight=4;overflow=hidden;rotatable=0;points=[[0,0.5],[1,0.5]];portConstraint=eastwest;fontStyle=0;fillColor=default;" vertex="1" parent="6ku5pOruQoeJ5bI3CPba-72">
          <mxGeometry y="319.9996496674058" width="180" height="26.76" as="geometry" />
        </mxCell>
        <mxCell id="6ku5pOruQoeJ5bI3CPba-88" value="+resize(): void" style="text;align=left;verticalAlign=top;spacingLeft=4;spacingRight=4;overflow=hidden;rotatable=0;points=[[0,0.5],[1,0.5]];portConstraint=eastwest;fontStyle=0;fillColor=default;" vertex="1" parent="6ku5pOruQoeJ5bI3CPba-72">
          <mxGeometry y="346.75964966740577" width="180" height="26.76" as="geometry" />
        </mxCell>
        <mxCell id="6ku5pOruQoeJ5bI3CPba-89" value="&amp;lt;&amp;lt;extend&amp;gt;&amp;gt;" style="html=1;verticalAlign=bottom;labelBackgroundColor=none;endArrow=open;endFill=0;dashed=1;rounded=0;" edge="1" parent="6ku5pOruQoeJ5bI3CPba-53" source="6ku5pOruQoeJ5bI3CPba-55" target="6ku5pOruQoeJ5bI3CPba-72">
          <mxGeometry x="0.0994" y="-30" width="160" relative="1" as="geometry">
            <mxPoint x="-210" y="320" as="sourcePoint" />
            <mxPoint x="340" y="210" as="targetPoint" />
            <mxPoint as="offset" />
          </mxGeometry>
        </mxCell>
        <mxCell id="6ku5pOruQoeJ5bI3CPba-91" value="&amp;lt;&amp;lt;extend&amp;gt;&amp;gt;" style="html=1;verticalAlign=bottom;labelBackgroundColor=none;endArrow=open;endFill=0;dashed=1;rounded=0;exitX=0;exitY=0.5;exitDx=0;exitDy=0;" edge="1" parent="6ku5pOruQoeJ5bI3CPba-53" source="6ku5pOruQoeJ5bI3CPba-90" target="6ku5pOruQoeJ5bI3CPba-72">
          <mxGeometry y="1" width="160" relative="1" as="geometry">
            <mxPoint x="290" y="340" as="sourcePoint" />
            <mxPoint x="130" y="209" as="targetPoint" />
            <mxPoint as="offset" />
          </mxGeometry>
        </mxCell>
        <mxCell id="6ku5pOruQoeJ5bI3CPba-92" value="&lt;h1&gt;Class Diagram&lt;/h1&gt;&lt;p&gt;Class Diagram for Final Project 420PA3AS. Representation of Data Structures: MyPriorityQueue and CircularQueue, and Model: Department, Course, and Professor.&lt;/p&gt;" style="text;html=1;strokeColor=none;fillColor=none;spacing=5;spacingTop=-20;whiteSpace=wrap;overflow=hidden;rounded=0;" vertex="1" parent="WIyWlLk6GJQsqaUBKTNV-1">
          <mxGeometry x="9" y="-810" width="290" height="120" as="geometry" />
        </mxCell>
        <mxCell id="6ku5pOruQoeJ5bI3CPba-93" value="" style="shape=image;imageAspect=0;aspect=fixed;verticalLabelPosition=bottom;verticalAlign=top;image=data:image/png,iVBORw0KGgoAAAANSUhEUgAAAPoAAABPCAYAAADC69j7AAAAAXNSR0IArs4c6QAAAARnQU1BAACxjwv8YQUAAAAJcEhZcwAALiMAAC4jAXilP3YAACYVSURBVHhe7Z0JnBTF2f+rj5nZ+75YDrlEBTzwAMUDBSXGI95HRE2MR4xRk5gQY4z5v3kTzzdRE6Mx8Ug0iRoVlHiioALiBQjKLSI3u8ves7M7Vx//31Nd0zM9Mwuzu7MrSn8/NNtV3dNnPVXPU/XU08zFxcXFxcXFxcXFxcXFxcXFxcXFxcXFxcXFxSVTJPG3f5EkhRWVj2FFZfuz/KKhLCe/mnm9RUxRc5hpGkzTulg42MKCHTtZoH0z87d8xrqw7uLikhX6T9BJuKuHncCqhh7LymuOYKVV41lB0XAmKarYIz3hYBsLtH3OWhpWsKadS1jD1gWsvXm92Ori4tILsi/otSNOYSPGX8IGjZjO8gtrRW7faK5bxrZ9NodtXPUvVAKbRK6Li0uGZEfQJVllYyZcg+VaVlZ9sMjtH7asm83WLvkjWvqFIsfFxWUP9F3QScAPPf7XLK9wsMhJT7CrkXW2fsE62jfBFq9jkVAr0/UwVHyZqd4C5sstZ3mw3wtLRrCC0lFMVXzil+nZvvF1tuKdW1lz/ccix8XFpRt6L+hVQ45lE6ffz8oHHSlynGgQ4rqNc1nd5nm89W1rXMMMIyq27h4S+vJBR7BBw6fCBDgFNv7hYksq65b+mS2dP5PpWkjkuLi4JNE7QT/8pDvYwZNvESkn1MJuWP4IVOxZLIRWPBtQZTJy3CVszGFXM9VXIHLjdPm3s3dfvoLVbZonclxcXBLomaB7c0rZ1AteYNXDpoicOI07l7BV793Btq5/UeRkH19uGTvwyBvYuKN/zjzePJEb52Oo8isX3yFSLi4ugswFvaRyHJs+Yz7Lza8WORbRkJ8tmfcTtuGTx0VO/0PXcPhJd7LRh14hcuJsXPlP9u5/LxcpFxcXkJmgVw4+mn3zskUpY+Bb17/A3n/1+1lT0XvK0P3PZMec8RjLzasUORY7Nr7G5j1zmki5uOzz7FnQy2omsDOvTO3ZXvbWzWzV+/eI1JcHqfNTzp3FBg0/UeRY7Nz0Jnvzqeki5eKyT6OIv+nJLxoGIV/B5KSW/K3nzmafD6Cqvjt0LQh1/QlWUDKclVUfJnIZKywdxUorx7PNa58TOS4u+yy7E3SJnX3NKubLKxNpi9eePJ7VobXc2yDPOS9a98rBk0QO9SuMZYriZXWb3xI5Li77JN0L+rQLX2Lltc4x8rn/Ommv9kjbufF1Pmkmcdy9etjxrGnnh6yj9XOR4+Kyz5HeRt//sCvZ5NMfFSmLhS9ewjatflqk9m5OmTGP1Q6fJlKMGVqEPX1vGdOinSKnV8jenBMlr88eWjSCnf82dW1AKhDZ6ztOysm7UFa9EyRJKmfMDJm6vsEIB1/Vg51PiN36jKR6DpJxHpGke3wS97iJSVKBkl/0E2TJlG9q0c+MUFe/lwdJUUfQ9che73GS4tmPmaZimEYDi0aWGqHgC0Y0/L7Ytc/g3g/EuS4SSfveJdV7qJyTe7bIRn7gUTz7HSL5lSBV0Mkr7eKbmkTKYvX7v2dL35opUns/NHPugh/XOXrjaYTg7efPFaleoRaV/UXJK7hWJFm0rekiFPZnRbLf8JRUPIUC+G2RTMGMRtZF25vPhvD1eZafkpt/hVpcbve/RFsbv4XK5CVJUYZ6KwdvFdkk6J9GmuoOFcl+QS0svVfJL6TKpVsg7K9qHS3XQvC2iaxeg3u/HPduV5q497Nx73NwDT/Gtdwnslm0peFEIxJeIJJfCVIFfepFL7Oho08XKcbaGlexOX9LO1FllJwz6uqcqmtEMmP8pt5+R3BH3LGltOpgNmL8pSKVOcHATrb2oz+KlBPqmDvzquUiZfH6P0/k0157iVpQ/BuloPjXIkkF4TQUhNdEsl9QS6teU3w5p4pk95hmINy4Yz9mGC0ip1egQjkPFcvzIolCvWuaEQm9JcnKIG/VoC3Yw0P5JPxUCfCdso/qLat5X/J607tXJ4N7jzTXT0Tls1bk9ApqtT0llS+IJN37ybj3+agAvoMK4B8im+Fck1C5fiSSXwmcgp5OOGY/NBr27UaRcvAtb+m35hQcMEcke4Tc8oFs4hXxxJgJV7JjTnOaCplAqvi/70l1iY1x1LQ/sLFH3yRSjHW0bGSz/zJapHrMQAu67MuZ7imtmiuSkC4zqHd13Gvq0XVMkstQAK+VPN6DxFYGFf5fWnvzZSLZK/YGQVfLKucp3ty46QUgWCuMaGghSkwE1cDBqPy+ITZxTN1ojjTtGAKh7/Wch6+zoHN7y2bSNx4UaxZrPri3OyEnAqYeEKs9Yrsedto3kVC7WOsZ7S0bxFp6lsz/KQsHm0WKscKyUWzomP5qhTICNudoFJzvkgkAIZ0osiG3SpW1yBWUpDzZl3c+/Y0Rbdt1qhZo+xUJNAT+TyhwY40EWxHHvVT83okkF5MA45w/kH25tiMRzlcTOy/MHa/I7iuK7M05RckrvB7LjTjf6Th2qrtyN+A6z08WclRel+NeJ2j+th9pHW0ztdZdp1La0OLquqTI5Wph8d0i6YDMDhz3IlzPj5Tcgqvw3CeITVmF+lHoGdN5cL5z8S6cjlxpkD2+yfjN93FdV1L/iMi2ywNWikSWAypHcm7+DHFP36N+BLEpLXFBp9a8auhkkbLGp5e9/QuR+uqy5E2njXf4lC/LF14i+89bWbsBf/9O9r63vOZDtbDkbrL/vFWDd9KiVtSsjAkdCkoJ/6WNxFvTRLSW+qOjbU3nWUvzDKhIhtjEUfKLZvqqardRK41zPuQprXwF5sBcsju9FYM2x85LBU78pNeQYHvoXGVVb6hFpQ9g+SPO97KvYvA2XMdPxW67Rc0v+q1Y5UDIr0DF9k+RtKEWHvceH0oFSl7RjVw4YkBIrGc+eCvu/xlcz/1qcdkjeO4fe8qr38M9HyP27BMQ6gu8FbXrPWXVi+gZ03lwvlnI24b3+39iNweobA6DefIRrmMxfvMwrutRvI81pDVS+bDLQ1HJH8RPOLi/Whx7NpUjT3H5v8Q9PeatqFnhKa1+B5XFAWJXB3FBH3eMs7Nt5eI7M55WujdDvu/BQJ1IMVZSNY679A4w9FLR4qb44EMAfk5CR6u0yEwpxl/eohtadDX9jQEBmksvlVonUftLpq5vN0Jds62l86lEG50KGZZ7UDoKRRYHau903rkkyzTnn58XS0ol0hOUotI/k2DLsjpIZMVR5DJcx+8TO7TSgVZqOATgQJGEMEfXQ8htlTkZ09DrtED7bdQxyBdd2yCpqlXQZbnUUz5odbpnTpCQc2EnjaMP0LuD4D2L844RWXHwfPF+f+YprXhZ5HDw7sahslkueb1HiSwbMg1J46NVWiRJzucbAAm5t7JmDd7/OSLLgezzTfFWVK/EcxwlsmwsQVc9eWy/gy7g6wSeGFv94b0i9dVn5Xt3ijWLA474gVgbEFDIb0/uWCIbD4XTIciEwfQO/LEEvSvwV/qbgEJqGrVOVPt7qgZvx/rTKKxnie02XI1EIRNJDs63yoxElohkMpr422PItlXzCn8okkwPh15HS/xdLN/B+hsimwsFrit15qNA8njino3AiARfEqvdogfaf0e9/3xp3DnGiIQXUz40iVdlVRnCd7LQjWjkw0R1nyCNAwJUY6Wk1M7pNGAnvh8E9pDEygvPdpnmb7mW+kkShx5hgp1OJoNISmppheO+yPzC/rOMaOg9kWVjmkZQrFJF/xpqQ2oICEMP+G+PtjdfSpUdKnjRNyF7UCb+a63HsQR92AHnoNaN1+jkNtrHMee9ig0rHqPXLFKM7TfmXNS2fWrBMkaS8iFwN4sUvZ422JcTqUMHhXO85m+9UWxJAS1WfbSl4ThTN9JOGpJRw6N2vxiF9UVSxxNbbrmg2KkCowDifAdHWuon0jFRgrL2ftX84tvFKtO6Oh6EDf1NGtvH8iTWv6EHA4+Jzbiuol+J1RTQejk0D9x/byIBG6hMjkeLbWtt1NpHGneMiDbDzGnaMRzX+GexiaMUFAkT1bQ6h/cAdtLpL8yM23gGoAoNz/ZIHZUz9aHAlLqE+hPEZibnF/8//tebM0VWPCN4JsDv5kYbd47A/udHm3cdq3W0xjuPE8DvTqaKhScMsyuya3s19deQLwdVduHGHRWxdwqtaCz2d/RzWII+PKE1Jz5fmTUHjHSY0DjtHndCyqwm7TVatIvt2BBXnyh4Rc3wk0SqX8EDPwF/bA9E1L63ojW3W1W9q+MBagFFMgVqoSJNO0eh0NyKFmMp9byLTQ5IHfeWVYnAG5JHUb22zW2Eu16hAiiS/Ji4Dl7w+gpaw2oqWCJJ0yKGQI1/gGxhWmhdkhRbnVc8OUfjfeeIpAPTdN4bjr3Hzqx0yL78i8UqB0J0ccI4u6H7W28w9KgdZBSVgtWDn3T+bjFN0roY8/mO438BinAeWvd7Y/dNtjraVrvTT2gXEp6V3QELNL29GaaFaTdCemfHfaQZiCTB5UTOyTmTpwjJ0NB43IRz/M0+X0ExKlDD1srkpFEJmapRVrVffOZXONw+4JFaKLhkf0MOM4nUjhyQmW3UOypWOekcLcxwMFnQ430nhGl06J3+O9BiHBVu2jEk2txwDDSBHxlh57GoEFEPM5VENPd2L7oRDr0qVm2Ql513rDjUYxSw3LOgxl9PqiottA7VPj5lWJIKIMCO38RAy7tGrHJQWPc41Rj7nIpC/lss/yv6I4pMybQ7JA1D24XjpoyvQ5jeEavQpRUrWnHmgs73k2XV7vizTKXCn8Tum49w5ORfIjZz8G6GoEKwbW5cWyO0ll0iaaNr4UQVngs6RCQek1FSiiDot+AcV9vny4dWElfroefHKxlC5rHZfL74DiTkpslVk/6iWJKLc5mcK5KMdfq3i7X+I3liS80w57TWXpGJqmc6bN9k9ZRIGRIzzTD9UXLzr4gtEKBv8m2G0WJEwx/Q8Fq0teFEtNR/4fkCSeVDR85zJvZECyRZSjts02OSxq1JXUeldBeWe8RyN8yG75Pdai0tV8LujA95JkCCbiSo69z11Jcbb8lSgFVPDkVozbDchsIOVdkMS4ZpD9fKkpJ2aA/vQdjleKT2PaDRywxLQzOs90RwrQk2c8J930NmWfy+my83DdOPC7JHUmQml1HFJ5I2suJ19FVYJJzL0Oqh4f3ScS7Y6QnnuswIdNjmFCGzsqTAi03bs+Y73B1Fslo4TPYOE0nGGnd8wKKRLpHqH7o6drD2xnjNXlw1nkef7QOwneO9+d2AwuvocKNaX6zaSDkpPcNcUNXi8kexPE4L71yC7cm3JpLcIkhCG0iwwXH8lEg8St7uXUszxdS1jbgIW/UkYUUhvAXLzWL5hREKzjE17Qu+6NGNKKmtYvcUjID/LrHKwX3PJschkbQhk8FTXr1IJDlGqOsZqiTRTsVduC0ffcfQHvVKyzm+k0US16xZmkRCa7tbJIlX1riXzTwNIMStZDMn3PfNqIwfsu+b3pNptJtR7RPxE0if7IP67aioqc9F9jnes9UxG42u4ikgm5IPwn2n41yw0+PPWNuCxeGrIrOScnuQnjNA4ZOneoqnilUqrFG2/J1filT/0VQf73GmcNLFZalDIj0ANtkD1AOO5T9plmdRwH4GVf1dput2wcaLvJAEl2worJ/rLatZKqtqvNIjJIlrO2gRaNjNxlNWvZDGTfG787CcA/v3T2jJHLY2VNIP6a8RDtq93XR8Gt6j39B5aZyW1sXmvoHW0AiF7DiBUJ/vIrWSO4vIcilpI96qwfU0XkyLUlL+H+zWbZ8M9VnQsJpIEip5B3pKK16i45LQkk3qrazdKHu8iePoJpkztGIEu57iOQJraK/kdpkceaDmespq8IzinbFGTCvK0GkI6jd/P3o4SPfCwX1eSkOMqESGoRYqJk3EVzMsHLtv3AM3z/Rg4O/8BwL6neVPUXovygyVpeSJQpagJ04gUpRST2XtBlT8J9C5aOxcLat6wz4Xygm2OfwiZFZYtr9Ytwi0fSHW+pXrcmrs4RgOfZRha0KHWX+Q/GmnwtJeu8MSVPNCYC7CcmGa5QIlJ5+GVAzU9I7Wkwo/vXi81FmS13uEyE6Ev1xe6CNhR8VLnlD43fNYZsP+vUFkc1DL/x+NLdM61fI8U0BjtvQbOi/OT+O0WQPncgzjQaju8FbV7vBVDN5BlZrI5mgtu6hzcrcmT7R11wlQTx3akuzLO4OOS0JLwgppc7S+5K4as3fpb0zoY6CC+CV35EElQV50IhsVYngBhEhMTMqs1z0GnvfdTE/wW8gr/CEqoC2+ysE7oYnQEJfdCYvrO0WsmmS+iHUO9a2QpocyE5s553B6ItBCb8b5fi+S1Ok5GgK9gM7lrRi0TkElJjZRpfACjXqIJEdmuQmfTaJAj8HOBpHqV8YrueMu8JU7e/vffvZMtuqDzMfvi0t6Jqj0EcdE8op2/9GJZNLYurvDhIFIf/lQU1fgEZ6ZBPloG5pmzwoTHTx2ixdp3TWZ/MpFsltw/IchcD8XSSoYG8guFMkUoGKvFKsWQnDQWjlt95hASUzF1dmtoKQothaCc21FQZ6aaC7wfWWr5eOYup8KO1TLz0ROt5CgRpvqx1KBFVndQvdBw2bkjy+yONSHAXXWMcSYDB/aam2wh6FS+k/se0/yUIyNGkCbibTUTzK06BaejiE7XX4h2Ffj+uzOT7TqjyPvqnTDpmTXU4UtkjiHVYYIvN+Z1AcikhZJ58IzmxVta0qZpSmx82/YwkNGEe3NG9iLD2eszk71FE2dXzh2vkj2mDAUzSGtywY3mZpzWmxByXAe+LEIqrWkeK3RuDR0+rexTxc7Oh12y5DRp7NpF8W1hk/e/S1bscCepLInUOOeI3tzz8JT23PNT2OIenR14ksjNU3OKbiGeRTy3tJZNPoRXvg1kqruj/yr+XEhEFpH+0wUooj1KwvqjFNy8mZATZsAXdwadjL1XUY0sswIBh6DiZA2IAhai6NU6pFVfRMhxD7TiGzQO9p/QV53UBephbC0h07/PRCatdj/SGgNcecXkU8qouWOiYJH96ZFlkOYHDMHyW5GyzQT1zodQsN71iG0W1DIX6fWyDTSd8LtDurNxnO/DH8nmbJcI+E/6EjNuKZVUJ1noWA/I3ZNC6n3uKYbmcc3SZakcoOZQfx2jRns+geNd4vdOLj3w3HvtpZE7472xbmPtd8P5aMCQeWWoPlKHqWg6GaFygZ590mmaup6Hd7NOzjGvdi325gF1JrLHt9EPCg/VVbk6UimVUzrQqXwKFUUfGcBnu9ZSl7+1UzxHSIrrMjQWQfTIp/qoc7HSdDFbg4kdvGPG5kv3+r1Jfv85cfSqZJp6augE18Y4U2T2ldOTBH2/oDi0Z96mT2swlZ/+Ae2dJ5D7RwgqMMsRT3rAbFavqejI/S7fh1RsYnZu0kVVh+h50ZL77z4UNGJ6+mRit5DVJwHlWG8lzwR2PAjleLSv0qG6TdNo1UP+H9HarnYzL3tvBXVS6mKorTW0foTvbPjfr4xHdY9pT1XInhoCWPYZnzAfaAYKftGrC45ZM10T0n/j2sn358s9f/4fXr6IuQECWtvBHZghJwggcqukBP03HpfRi2B6E8hJ7TdCR60mka0/CdDSzlXyS24Ejb9JurHgEZwq1pY9iDs7eUxISeMNBN6HGQg5AQEPaHwD4TjShqqJG/l3MID5z5bOObZaZ7iaQqph/1B8v1Rb79Lf9NtD/s+iWl0cBfkBKhzVi0o+Z2SX3AdkqSxcGBrX9QbcycdEjvvh5thE+/HUxRAcfZDzl743ZAN1T0ddXq0fp0RXFdvRutRPWowjdIWli16ZMuvgttuFck9M2T/M3jQyxifLPpftmJhxq6gqIXPk305Z+GxOVoFvaNtZqzHNxnYwX9gDocYUzLCoTnd2VJfZWDLHi9TjziAjV4E1TSg+Vt/SPYn36HXwAYuKrnP6iwzJTMSWUi2q9j4lYTsfrWg9P50UXRMLfKJRv4Hu3GN7ikS/zgDfaSBiEQ62LP3VfO56BnQX4KeKX5D6yhuW5q5hxd9wunYM+LDPTRXfc1H3ds/SdDQDB/aSYL3lHZ1PCCSNrC3xkMVc/Zug3QdLAMJjUXLHu+R5Fuu+Vuuh/qXFWclX/UQP7Qmu+cax75G7+IC2Td1WZJyfdVD7WukCSQ0WUYkv9KQ95+kqmMlGRWjYXaYenQNzbUXm7OGzDoD8SEnr7eQ5RbYroF7OxvNcLfRb9KS/A138pbrCbqRduhRyknvpgkNwI4c6qCb4wwUaHVvxLVdTCojhCjtBJMeoqplVW8nCLlJQ15iSDEbNrFp6ka8s9b4akVg3R3UekO7exrP6q8UT6A/hJyQWUezc1yzsGSkWPv6QcN1ifj3EIoqQxRvzklQz5OiwSAfwiRW9yIkjxybFWbqfvKd5+t9QzNDwec1MQc93LC9mOZ+i20uewEya292zuyhSS5fVypq45FltGgIgr5H543uoFlRCa6tquLLdcSikxR1BFT3cTxhQDU29T3GxSO3UYoDphYU/w8taHW/jQrE+aUcAY4/HMv+VmQTK8QUqYF8BlVB0a2Jccg5aG2tqCqV78QdWWSFxo75cWKz0CQpn45pHZuHJbI6h9Dyy77cMxLnecfAfgebWnQ9TIGQaRitOJY937pbYMPT7C66ViWv4DrcO/dWs67Fuq+UyT4uvUZO8W2vHJyVOFp7HfQFl+LyeEdjW+OnfJ56b4lGPtIjIbtjD0LgEHQImu1LbkSCr+sJc9DToRaW3O2tqN1KccDIf50WT0nFU77KwVtpGqbYzUYtr17sraz9jMcqKyn7B35/J8UNI59p6sGlaKY8XJEQIOTd5eFx0nLiPtAQauyzjI6jWj7oNH9+Kh3TOvagdTTzDRXOhd6KwVs9pZUvoSKx/e9pSizO8yr2+9RTVvUmrvcZcv1E+hNPZe3neCZpTRqawumrHLTFU1L+b7pWtajsQW/loI049k1qedXC2H0p+cWxjtb+HhL72gNBr/uYRULx2UQ1I6ahtv2yxpf7j0EJX24h6rbEHWd6haQb4aAdskf20jTSePBG2Ru3z2k/yWDdRsylCQlKftHP0Xqn2ssQRpqGmRiG2MK0h2F4y0jeb0mgtT5MKangH5mUFNn5XftkFDWdyaYpxeVPQID/g99zdd8wrJlhpAFAGNeiQrOmzyYhK+ooEnrSAkQWh3z1KSgDdkhyK1WKaYRCltV4H5HkDs1lCyosJqvb/LaVBNQhN3hkRj2aeA9f6ovo0fmHHej0/637Ih4vvRegpRsEAX7dVsllKS82nZJaUXuqoWEGsd/LTInPf06EWuvECQkEfWaI5pyLJIdUcQhzPIBnmiAJPCaaTtNG41D/AV2PHux8HMvfKVad2MQxgp3PU77RGUg3+gCTxDlFlNxo6a+ntOoVqoR4JtA7/XeQj7Xmb70+cUIKhH0OmQ20Tio5zb7jGwR0vUY4vAg1SKrjR/YdbvZZrFZh8xp7uh1n9CEZzW5S+L8vDxXWoVjdPR5UXkNGx6OV0OSd+i19+qSOKUs8RhcKqV1hkA+y9Tc+BdSIBt/iTg/pwiJBAKi1FinsbIRoFla0uWEyRZGJtjZShFLbm03NL/od/qQ+cwgJfncSj4nWuHO0EXJ+VELy+CaisnlVa2/+ntbpdwhatL35AsqHoFox0aXUkNIE7xmmwApdgUdgk4/FYsUvQ6tPQRm1jrZbsc8LelfHg9FdO2sTgjDKSl4+n61F/uA8R0CunXS90daGEyJNdSPIf11scskylqDTJ4c1PV6j7nfQecybEHWmG3ZRh9SXSKupdRvAwMGYCdegAMcFZPO652jARqR6h2lVMnqoy/6qiZRjhQ5Gy26bCRA6a7uZOtcZrb7zQwWd/t/Ql0FEklT+VyGA94gkfiB7oY6ndJbC/l+A39mmiB4MPCxWBfHQStBEHBUOWtnhYjWGwx6mYS0I4Vi01pdQYAXSCKB+Xy82UyWjweb+HtTxh9Fa/5UvhSW3U1wzsQeTPT4+b1zy5tgRYPnsuo5We/quaeh1dA6RdMkylqDrEPLNji+lSilx3tPwqd75aYMR+dKE/Y1oW2bq97jJjpaErf/YEdWjd1gz6iCMduvJo7L6cs+0e9sBtosOu9QZeBAyR+90opDHMMIhx7fo0wgmTe5zdiqKwAg2psO3PtncsW39dOhd7XeipXWMzMAUiNv7spxD/QMQ9u+jAriGL/lFv0yMdBp7HrIs2ZUM7iuljwTnWZk4v9sle8Rf8uoP7EntnPGTZjJFdRaYJFB6jBu6tsRr9wGkw9AC94fq9+zVNmbC1Y6vqrbUL2fNdYlRNvuGaQYS7V61qPxxSVX4RwhIFd2tr3JSvLWU+dCELDk1q3STGCTTqW5L2ZusY2paug8Xxq/B1Nv1QPtvSA2PLxQvreUamnNNHoBQ66mihUYVj8kWGw1IQsL98j4Al+wSF/S2xtWwW+OdcrLqZUed7BT+NDwXaX7u7tDOuHo5AHQaRteJgbVTMvr22+HTnJ/E+fidzH3jMwTqu/2hSUmhsV9r9hHFSuOZ3WAkdYwlDl3FkPMKHZFSUHk4P4LZR6AyJ3uZOVt8iaUIHq47bkubslcLtP8PqeHxpe1mIxJ+D/stNbTIUqjpFJjBSIyxB83nGxB2xzg5RTVFJeWIHOOSHZxq24dzHaGJ2AFHXMdKKuyY3d3xi66tN88IfD5jsxFyRtroB+ZEWv87zv/J2I+1zj3Htjv61IccEW7bmtawHRuz/vVTqOdpBVoPde722+nQBJY54otD7YdG8A8e6MDrO46GtRRvjh2tllRbCI0djaZXxIJHCmj4i0wI2O5iVCBuz1ukRkaljjmxigNIuTx+meVII0M/L6NYdt6KQatoXJ/G8uW8Avoyjkl9Dvw3BARaLa+mOHbniuAQFKc8+cs0LlnC+RKpVaevtCQy9cKMPov8VKTpqVFtK0aSwM+KtMxuMrWsTK8jVmvBNfcG6+472r/q6LMD68/aYoT3XKFUDZmc8umlxS9/T6xlFQjgaiMpigiFh0L+pyLZLXp7i+Mzx0pe/nc8ZdXvYllEjioimxNtb85CrDdnpyAqk+e9lbVfqGK8Hfb8HqfuorLZpCeEmebxy8qr3/dYceK2Jcayo/DNekcbj8Jq9+wLyI7H+Wd5yms+4LP8XPqNlNqavf/K1bAD4z3SFEDx6FOdn1PuBrLZSeDPD3x23tC2j4dM8a+Zcltw221vRf1vBwwj408AbdMj25+OND9zVecXV41t/2TseP8n434a3HLTh1ogM/9p6luYeuErImWxadXTrGlH3/yvE+xKWfVYU3sFZsgZ182MhByagyPSa8Jx+FdT2ptTwjEnw+cmRyO2FgMhsTvl0BrH4/4BSYQjtkn4bLEZDacP563I1oSfJNUZx0obEhs2+HUwTezorwR3dkmIYUaVn9ZcPwnliY+Hw0yoj7Y2pnwnLkZi7DyOrMRUe8kyiSwkaQ/OPy4ppI7JUg98R8vnbL8DzxM55CN+FOvyb2MtDRnbhzSPnFrehVrHwicjjU/8Jdzw0CLNv6jejDb4mOSrlb32Z3pouunCqH/RI+Fdf7sluPWWmcGtM6EVzFqudy7vVYipUy9d4HB3pe/IvfbEZEcF1gtgU1aakpyHFm2jGQ29B1XU9laj4SGmeEbxbVj0Lv/vUdLjHyNAq2caRj3fHgm+jtbenqVE61CHn8MJiiFwVSjIXLjI8QTCNEtra7oQArqI7yzA8UbieA3W8cJvo8Kw+1doLjiEZFDsWnCds3Et3D42dX0LX5fkUlx0K9YbcKJdOP5i7PdfLuiKul/st2Y4+GLC54wc4Jr/w8iUUNQanJM+RkB9ExoqpHV6MPAnXPdFeOYOH38ccz3O8xp+M1Qmbz1J8tG8AaML+7c3XyorylAj9pzCobmmRpUbjq56DqSPEfL8aOhNnKPfvz/wdaJ7z7Ip5z6b8k22ec+cli0bd4jsHXKSp+ikgGkE5kfb5/tpJlU2OOGcp9mIsc5ZY6//80TWsLVPDjIDiCIpvIVGtcQriiSbeS+F4ovLqKhMI4gKKO1HIVOQ5EJoDPmoJKkyH/AwZvsSu3chPfcHn7PCMue3lt98ajrbuckxtrvXMPn0R9n+hzliZrPl7/yqR5FiXVy+hqTa6Im8+uRk7i6ayCmXvMFGjtv7PJhIA0kW8o0rn3SF3MUlnY2eCNm2Wz97gR0w4VoyUEUu4/Y7dC5W39cZYFkgr7CWTZ8xL+XrqOTWu+CFvTDwg4vLwJPZ7K/SqkPYaZcv5t8VT2TnF2+w9165mnX6+za221vIFp982iMp17V53Sy2YNb5IuXiss+TmaATFGJq+oy37IixMXQjypbN+xlbu+RPIqf/KSgezo6YdjcbfpBjnJmz/uOH2QevOcfPXVz2cTIXdEL15LETz3ueDR6VGmygrXEVW/neXeyLVf8WOdmHgjseeNSNbNyknzE5wZSI8dGbP2ZrP3J8JsjFxaWngh7jkGNvZRNOpLnRqdA3yDd8+jjbvObZrKn09CmlkeNnsFGHfpcp8a9Y2FDst8UvXcF2bX9P5Li4uCTQO0EnKBb8xFPu40LYHTs3z2f1m+bzMWxyr42E9xggkUMffaQglRT+iUJblZTz2WBpWfX+3WzZW7dgzY0r5uLSDb0X9BjU0h56/K9TQikno4UDzN+2Ca38ZtYVqGPRUCvTtTAuQeIRYHy55RDwIbC/R6b0A6SDOtxWLLiNtTelm0bp4uKSQN8FPcaoQ77Dxhx+LasanBIOOGsYWoRtWvsMW7vkAdZct1Tkuri47IHsCXqMqiHHshHjvs0Gjzw1xauutzRsWci2bpjDNq1+igUD9SLXxcUlQ7Iv6IlU1E7k00XLao5kZdUHs0Ko5clj3skEodZT51ozRYLZuYQ1bFsEdT/tpAoXF5fM6F9Bj6F68llx+QHcjqchMl9eBezyAiYrPsZMA7Z6iEXCbSzYuYt1tm9m7c3rWUdrz76r5uLi4uLi4uLi4uLi4uLi4uLi4uLi4uLi4uLi4uLi0lcY+/9TQX2cSqPFuQAAAABJRU5ErkJggg==;" vertex="1" parent="WIyWlLk6GJQsqaUBKTNV-1">
          <mxGeometry x="870" y="-810" width="250" height="79" as="geometry" />
        </mxCell>
        <mxCell id="6ku5pOruQoeJ5bI3CPba-95" value="&lt;div style=&quot;font-size: 13px;&quot;&gt;&lt;span style=&quot;background-color: initial;&quot;&gt;&lt;div style=&quot;&quot;&gt;&lt;font style=&quot;font-size: 13px;&quot;&gt;Natalia Andrea Herrera Espinosa -&amp;nbsp;&lt;span style=&quot;background-color: initial;&quot;&gt;2232086&lt;/span&gt;&lt;/font&gt;&lt;/div&gt;&lt;/span&gt;&lt;/div&gt;&lt;div style=&quot;font-size: 13px;&quot;&gt;&lt;span style=&quot;background-color: initial;&quot;&gt;&lt;font style=&quot;font-size: 13px;&quot;&gt;Paulo Enrique Oliveira Silva - 2311209&lt;/font&gt;&lt;/span&gt;&lt;/div&gt;" style="text;html=1;strokeColor=none;fillColor=none;align=left;verticalAlign=middle;whiteSpace=wrap;rounded=0;" vertex="1" parent="WIyWlLk6GJQsqaUBKTNV-1">
          <mxGeometry x="870" y="-710" width="280" height="30" as="geometry" />
        </mxCell>
      </root>
    </mxGraphModel>
  </diagram>
</mxfile>
